<svg xmlns="http://www.w3.org/2000/svg" version="1.1" xmlns:xlink="http://www.w3.org/1999/xlink" xmlns:svgjs="http://svgjs.com/svgjs" width="1440" height="560" preserveAspectRatio="none" viewBox="0 0 1440 560"><g mask="url(&quot;#SvgjsMask1007&quot;)" fill="none"><path d="M1057.11 453.32a3.26 3.26 0 1 0-5.73 3.1z" fill="#e73635"></path><path d="M637.31 228.98 a26.07 26.07 0 1 0 52.14 0 a26.07 26.07 0 1 0 -52.14 0z" fill="#d3b714"></path><path d="M723.45 239.21L738.3 239.21L738.3 254.06L723.45 254.06z" fill="#e73635"></path><path d="M77.73 153.9a1.61 1.61 0 1 0-0.76-3.13z" fill="#e73635"></path><path d="M1146.39 337.16L1182.45 337.16L1182.45 373.22L1146.39 373.22z" stroke="#d3b714"></path><path d="M970.91 259.69a22.66 22.66 0 1 0 21.72 39.78z" stroke="#d3b714"></path><path d="M647.45 137.25L667.03 137.25L667.03 156.83L647.45 156.83z" fill="#d3b714"></path><path d="M885.87 364.97 a53.55 53.55 0 1 0 107.1 0 a53.55 53.55 0 1 0 -107.1 0z" fill="#e73635"></path><path d="M787.37 30.55a46.42 46.42 0 1 0-69.49 61.56z" stroke="#e73635"></path><path d="M291.01 372.72 a52.59 52.59 0 1 0 105.18 0 a52.59 52.59 0 1 0 -105.18 0z" stroke="#e73635"></path><path d="M936.85 273.96L939.24 273.96L939.24 276.35L936.85 276.35z" stroke="#d3b714"></path><path d="M911.49 406.99L951.88 406.99L951.88 418.72L911.49 418.72z" fill="#d3b714"></path><path d="M999.24 43.16L1040.62 43.16L1040.62 84.54L999.24 84.54z" stroke="#d3b714"></path><path d="M402.54 501.13a0.86 0.86 0 1 0-1.72 0z" stroke="#d3b714"></path><path d="M892.74 460.54L902.23 460.54L902.23 470.03L892.74 470.03z" stroke="#e73635"></path><path d="M1341.4 146.27 a51.8 51.8 0 1 0 103.6 0 a51.8 51.8 0 1 0 -103.6 0z" stroke="#d3b714"></path><path d="M875.33 371.2L901.69 371.2L901.69 397.56L875.33 397.56z" fill="#d3b714"></path><path d="M1333.57 14.22L1341.63 14.22L1341.63 64.64L1333.57 64.64z" stroke="#e73635"></path><path d="M621.7 30.69L642.88 30.69L642.88 51.87L621.7 51.87z" stroke="#d3b714"></path><path d="M251.06 550.98L251.17 550.98L251.17 584.19L251.06 584.19z" stroke="#d3b714"></path><path d="M976.59 316.86L1005.43 316.86L1005.43 345.7L976.59 345.7z" fill="#d3b714"></path><path d="M946.68 164.37L956.44 164.37L956.44 174.13L946.68 174.13z" fill="#d3b714"></path><path d="M470.89 199.36L494.12 199.36L494.12 222.59L470.89 222.59z" fill="#e73635"></path><path d="M1054.02 35.87 a35.69 35.69 0 1 0 71.38 0 a35.69 35.69 0 1 0 -71.38 0z" stroke="#d3b714"></path><path d="M890.2 490.77L902.94 490.77L902.94 503.51L890.2 503.51z" fill="#e73635"></path><path d="M689.94 522.6 a22.72 22.72 0 1 0 45.44 0 a22.72 22.72 0 1 0 -45.44 0z" stroke="#d3b714"></path><path d="M466.1 52.53L510.06 52.53L510.06 96.49L466.1 96.49z" fill="#e73635"></path><path d="M924.31 117.74L933.05 117.74L933.05 150.51L924.31 150.51z" stroke="#e73635"></path><path d="M834.19 290.39a23.85 23.85 0 1 0 35.51 31.84z" fill="#d3b714"></path><path d="M-14.45 261.19 a24.35 24.35 0 1 0 48.7 0 a24.35 24.35 0 1 0 -48.7 0z" stroke="#d3b714"></path><path d="M965.75 293.78 a41.62 41.62 0 1 0 83.24 0 a41.62 41.62 0 1 0 -83.24 0z" stroke="#e73635"></path><path d="M495.88 338.67L501.65 338.67L501.65 387.02L495.88 387.02z" stroke="#e73635"></path><path d="M1004.23 304.61 a54.59 54.59 0 1 0 109.18 0 a54.59 54.59 0 1 0 -109.18 0z" stroke="#d3b714"></path></g><defs><mask id="SvgjsMask1007"><rect width="1440" height="560" fill="#ffffff"></rect></mask></defs></svg>