<svg xmlns="http://www.w3.org/2000/svg" version="1.1" xmlns:xlink="http://www.w3.org/1999/xlink" xmlns:svgjs="http://svgjs.com/svgjs" width="1440" height="560" preserveAspectRatio="none" viewBox="0 0 1440 560"><g mask="url(&quot;#SvgjsMask1083&quot;)" fill="none"><path d="M987.69 208.77 a41.28 41.28 0 1 0 82.56 0 a41.28 41.28 0 1 0 -82.56 0z" fill="rgba(117, 102, 234, 1)"></path><path d="M134.3 524.27L167.71 524.27L167.71 557.68L134.3 557.68z" fill="rgba(69, 147, 242, 1)"></path><path d="M1355.87 188.42L1401.99 188.42L1401.99 221.54L1355.87 221.54z" stroke="rgba(69, 147, 242, 1)"></path><path d="M111.26 43.44 a34.74 34.74 0 1 0 69.48 0 a34.74 34.74 0 1 0 -69.48 0z" fill="rgba(117, 102, 234, 1)"></path><path d="M113.09 337.56 a1.04 1.04 0 1 0 2.08 0 a1.04 1.04 0 1 0 -2.08 0z" stroke="rgba(117, 102, 234, 1)"></path><path d="M407.69 64.04a39.11 39.11 0 1 0-49.5 60.56z" fill="rgba(117, 102, 234, 1)"></path><path d="M789.06 477.55L828.43 477.55L828.43 508.6L789.06 508.6z" fill="rgba(69, 147, 242, 1)"></path><path d="M289.09 15.35L329.64 15.35L329.64 55.9L289.09 55.9z" fill="rgba(69, 147, 242, 1)"></path><path d="M1379.04 53.74L1409.6 53.74L1409.6 102.17L1379.04 102.17z" fill="rgba(117, 102, 234, 1)"></path><path d="M790.17 177.18L832.63 177.18L832.63 219.64L790.17 219.64z" stroke="rgba(117, 102, 234, 1)"></path><path d="M715.57 20.83L720.84 20.83L720.84 29.17L715.57 29.17z" stroke="rgba(69, 147, 242, 1)"></path><path d="M932.62 419.95L972.04 419.95L972.04 459.37L932.62 459.37z" stroke="rgba(69, 147, 242, 1)"></path><path d="M329.46 218.38L364.95 218.38L364.95 253.87L329.46 253.87z" stroke="rgba(69, 147, 242, 1)"></path><path d="M1294.1 494.48 a27.34 27.34 0 1 0 54.68 0 a27.34 27.34 0 1 0 -54.68 0z" fill="rgba(69, 147, 242, 1)"></path><path d="M1025.23 479.1 a20.06 20.06 0 1 0 40.12 0 a20.06 20.06 0 1 0 -40.12 0z" stroke="rgba(117, 102, 234, 1)"></path><path d="M430.42 372.98L442.85 372.98L442.85 385.41L430.42 385.41z" fill="rgba(117, 102, 234, 1)"></path><path d="M51.86 313.58L73.32 313.58L73.32 333.2L51.86 333.2z" stroke="rgba(69, 147, 242, 1)"></path><path d="M608.54 500.79 a50.93 50.93 0 1 0 101.86 0 a50.93 50.93 0 1 0 -101.86 0z" fill="rgba(69, 147, 242, 1)"></path><path d="M849.38 211.54L891.65 211.54L891.65 259.1L849.38 259.1z" fill="rgba(69, 147, 242, 1)"></path><path d="M411.06 351.29L459.52 351.29L459.52 399.75L411.06 399.75z" fill="rgba(69, 147, 242, 1)"></path><path d="M1322.12 352.56a35.25 35.25 0 1 0-41.88 56.72z" fill="rgba(117, 102, 234, 1)"></path><path d="M741.57 401.08 a15.32 15.32 0 1 0 30.64 0 a15.32 15.32 0 1 0 -30.64 0z" fill="rgba(69, 147, 242, 1)"></path><path d="M414.09 99.99 a20.14 20.14 0 1 0 40.28 0 a20.14 20.14 0 1 0 -40.28 0z" fill="rgba(117, 102, 234, 1)"></path><path d="M681.76 411.56L736.26 411.56L736.26 466.06L681.76 466.06z" fill="rgba(117, 102, 234, 1)"></path><path d="M1042.65 91.96L1065.77 91.96L1065.77 127.76L1042.65 127.76z" fill="rgba(69, 147, 242, 1)"></path><path d="M901.94 171.35L946.33 171.35L946.33 186.01L901.94 186.01z" fill="rgba(117, 102, 234, 1)"></path><path d="M1077.14 343.59a12.58 12.58 0 1 0-8.57 23.66z" fill="rgba(69, 147, 242, 1)"></path><path d="M1014.75 273.89L1021.66 273.89L1021.66 280.8L1014.75 280.8z" fill="rgba(69, 147, 242, 1)"></path><path d="M1410.91 43.88L1466.5 43.88L1466.5 61.45L1410.91 61.45z" stroke="rgba(69, 147, 242, 1)"></path><path d="M1157.08 342.16L1166.03 342.16L1166.03 351.11L1157.08 351.11z" stroke="rgba(117, 102, 234, 1)"></path><path d="M669.25 38.24L696.4 38.24L696.4 65.39L669.25 65.39z" fill="rgba(117, 102, 234, 1)"></path><path d="M315.05 417.66 a15.18 15.18 0 1 0 30.36 0 a15.18 15.18 0 1 0 -30.36 0z" stroke="rgba(117, 102, 234, 1)"></path><path d="M285.76 402.23 a3.07 3.07 0 1 0 6.14 0 a3.07 3.07 0 1 0 -6.14 0z" fill="rgba(117, 102, 234, 1)"></path></g><defs><mask id="SvgjsMask1083"><rect width="1440" height="560" fill="#ffffff"></rect></mask></defs></svg>