<svg xmlns="http://www.w3.org/2000/svg" version="1.1" xmlns:xlink="http://www.w3.org/1999/xlink" xmlns:svgjs="http://svgjs.com/svgjs" width="1440" height="560" preserveAspectRatio="none" viewBox="0 0 1440 560"><g mask="url(&quot;#SvgjsMask1011&quot;)" fill="none"><path d="M1720.91 388.61C1585.53 383.84 1495.57 179.62 1225 170.21 954.43 160.8 864.27-41.49 729.09-46.13" stroke="rgba(126, 181, 253, 1)" stroke-width="2"></path><path d="M1454.39 316.52C1266.59 312.26 1116.56 57.24 750.59 53.32 384.62 49.4 226.15-85.18 46.79-85.84" stroke="rgba(126, 181, 253, 1)" stroke-width="2"></path><path d="M1596.54 473.11C1498.72 472.83 1404.06 403.11 1211.58 403.11 1019.1 403.11 1044.93 486.06 826.63 473.11 608.33 460.16 587.62 39.63 441.67-12.11" stroke="rgba(126, 181, 253, 1)" stroke-width="2"></path><path d="M1646.48 247.45C1528.39 247.26 1412.91 177.45 1179.34 177.45 945.77 177.45 955.34 250.15 712.2 247.45 469.06 244.75 388.52-75.58 245.06-93" stroke="rgba(126, 181, 253, 1)" stroke-width="2"></path><path d="M1567.15 372.17C1380.56 370.72 1136.02 195.34 844.02 187.37 552.02 179.4 591.67-50.5 482.46-62.23" stroke="rgba(126, 181, 253, 1)" stroke-width="2"></path></g><defs><mask id="SvgjsMask1011"><rect width="1440" height="560" fill="#ffffff"></rect></mask></defs></svg>