<svg xmlns="http://www.w3.org/2000/svg" version="1.1" xmlns:xlink="http://www.w3.org/1999/xlink" xmlns:svgjs="http://svgjs.com/svgjs" width="1440" height="560" preserveAspectRatio="none" viewBox="0 0 1440 560"><g mask="url(&quot;#SvgjsMask1010&quot;)" fill="none"><path d="M-64.75 387.58L-64.75 387.58" stroke="#132e65" stroke-width="1.5"></path><path d="M-64.75 387.58L111.12 366.63" stroke="#132e65" stroke-width="1.5"></path><path d="M-64.75 387.58L62.89 559.2" stroke="#132e65" stroke-width="1.5"></path><path d="M-64.75 387.58L-80.32 665.91" stroke="#132e65" stroke-width="1.5"></path><path d="M-64.75 387.58L216.67 390.71" stroke="#132e65" stroke-width="1.5"></path><path d="M-64.75 387.58L64.09 690.23" stroke="#132e65" stroke-width="1.5"></path><path d="M-64.75 387.58L260.23 493.72" stroke="#132e65" stroke-width="1.5"></path><path d="M-80.32 665.91L-80.32 665.91" stroke="#132e65" stroke-width="1.5"></path><path d="M-80.32 665.91L64.09 690.23" stroke="#132e65" stroke-width="1.5"></path><path d="M-80.32 665.91L62.89 559.2" stroke="#132e65" stroke-width="1.5"></path><path d="M111.12 366.63L111.12 366.63" stroke="#132e65" stroke-width="1.5"></path><path d="M111.12 366.63L216.67 390.71" stroke="#132e65" stroke-width="1.5"></path><path d="M62.89 559.2L62.89 559.2" stroke="#132e65" stroke-width="1.5"></path><path d="M62.89 559.2L64.09 690.23" stroke="#132e65" stroke-width="1.5"></path><path d="M62.89 559.2L111.12 366.63" stroke="#132e65" stroke-width="1.5"></path><path d="M62.89 559.2L260.23 493.72" stroke="#132e65" stroke-width="1.5"></path><path d="M64.09 690.23L64.09 690.23" stroke="#132e65" stroke-width="1.5"></path><path d="M64.09 690.23L257.39 643.25" stroke="#132e65" stroke-width="1.5"></path><path d="M216.67 390.71L216.67 390.71" stroke="#132e65" stroke-width="1.5"></path><path d="M216.67 390.71L260.23 493.72" stroke="#132e65" stroke-width="1.5"></path><path d="M216.67 390.71L399.09 515.07" stroke="#132e65" stroke-width="1.5"></path><path d="M216.67 390.71L62.89 559.2" stroke="#132e65" stroke-width="1.5"></path><path d="M216.67 390.71L257.39 643.25" stroke="#132e65" stroke-width="1.5"></path><path d="M260.23 493.72L260.23 493.72" stroke="#132e65" stroke-width="1.5"></path><path d="M260.23 493.72L399.09 515.07" stroke="#132e65" stroke-width="1.5"></path><path d="M260.23 493.72L257.39 643.25" stroke="#132e65" stroke-width="1.5"></path><path d="M260.23 493.72L111.12 366.63" stroke="#132e65" stroke-width="1.5"></path><path d="M257.39 643.25L257.39 643.25" stroke="#132e65" stroke-width="1.5"></path><path d="M257.39 643.25L338.08 685.07" stroke="#132e65" stroke-width="1.5"></path><path d="M399.09 515.07L399.09 515.07" stroke="#132e65" stroke-width="1.5"></path><path d="M399.09 515.07L544.48 487.58" stroke="#132e65" stroke-width="1.5"></path><path d="M399.09 515.07L506.08 643.26" stroke="#132e65" stroke-width="1.5"></path><path d="M338.08 685.07L338.08 685.07" stroke="#132e65" stroke-width="1.5"></path><path d="M338.08 685.07L506.08 643.26" stroke="#132e65" stroke-width="1.5"></path><path d="M338.08 685.07L399.09 515.07" stroke="#132e65" stroke-width="1.5"></path><path d="M338.08 685.07L260.23 493.72" stroke="#132e65" stroke-width="1.5"></path><path d="M338.08 685.07L64.09 690.23" stroke="#132e65" stroke-width="1.5"></path><path d="M338.08 685.07L544.48 487.58" stroke="#132e65" stroke-width="1.5"></path><path d="M512.23 392.25L512.23 392.25" stroke="#132e65" stroke-width="1.5"></path><path d="M512.23 392.25L544.48 487.58" stroke="#132e65" stroke-width="1.5"></path><path d="M512.23 392.25L399.09 515.07" stroke="#132e65" stroke-width="1.5"></path><path d="M544.48 487.58L544.48 487.58" stroke="#132e65" stroke-width="1.5"></path><path d="M544.48 487.58L506.08 643.26" stroke="#132e65" stroke-width="1.5"></path><path d="M544.48 487.58L701.46 352.97" stroke="#132e65" stroke-width="1.5"></path><path d="M506.08 643.26L506.08 643.26" stroke="#132e65" stroke-width="1.5"></path><path d="M506.08 643.26L660.87 687.66" stroke="#132e65" stroke-width="1.5"></path><path d="M506.08 643.26L257.39 643.25" stroke="#132e65" stroke-width="1.5"></path><path d="M677.55 230.11L677.55 230.11" stroke="#132e65" stroke-width="1.5"></path><path d="M677.55 230.11L701.46 352.97" stroke="#132e65" stroke-width="1.5"></path><path d="M677.55 230.11L806.38 244.67" stroke="#132e65" stroke-width="1.5"></path><path d="M677.55 230.11L813.1 346.6" stroke="#132e65" stroke-width="1.5"></path><path d="M677.55 230.11L512.23 392.25" stroke="#132e65" stroke-width="1.5"></path><path d="M677.55 230.11L544.48 487.58" stroke="#132e65" stroke-width="1.5"></path><path d="M677.55 230.11L947.42 109.99" stroke="#132e65" stroke-width="1.5"></path><path d="M701.46 352.97L701.46 352.97" stroke="#132e65" stroke-width="1.5"></path><path d="M701.46 352.97L813.1 346.6" stroke="#132e65" stroke-width="1.5"></path><path d="M660.87 687.66L660.87 687.66" stroke="#132e65" stroke-width="1.5"></path><path d="M660.87 687.66L856.11 642.99" stroke="#132e65" stroke-width="1.5"></path><path d="M660.87 687.66L544.48 487.58" stroke="#132e65" stroke-width="1.5"></path><path d="M660.87 687.66L859.38 546.12" stroke="#132e65" stroke-width="1.5"></path><path d="M660.87 687.66L399.09 515.07" stroke="#132e65" stroke-width="1.5"></path><path d="M660.87 687.66L338.08 685.07" stroke="#132e65" stroke-width="1.5"></path><path d="M806.38 244.67L806.38 244.67" stroke="#132e65" stroke-width="1.5"></path><path d="M806.38 244.67L813.1 346.6" stroke="#132e65" stroke-width="1.5"></path><path d="M806.38 244.67L701.46 352.97" stroke="#132e65" stroke-width="1.5"></path><path d="M806.38 244.67L985.14 228.68" stroke="#132e65" stroke-width="1.5"></path><path d="M806.38 244.67L947.42 109.99" stroke="#132e65" stroke-width="1.5"></path><path d="M806.38 244.67L1006.9 401.01" stroke="#132e65" stroke-width="1.5"></path><path d="M813.1 346.6L813.1 346.6" stroke="#132e65" stroke-width="1.5"></path><path d="M859.38 546.12L859.38 546.12" stroke="#132e65" stroke-width="1.5"></path><path d="M859.38 546.12L856.11 642.99" stroke="#132e65" stroke-width="1.5"></path><path d="M859.38 546.12L813.1 346.6" stroke="#132e65" stroke-width="1.5"></path><path d="M859.38 546.12L1006.9 401.01" stroke="#132e65" stroke-width="1.5"></path><path d="M859.38 546.12L701.46 352.97" stroke="#132e65" stroke-width="1.5"></path><path d="M859.38 546.12L1113.45 525.37" stroke="#132e65" stroke-width="1.5"></path><path d="M856.11 642.99L856.11 642.99" stroke="#132e65" stroke-width="1.5"></path><path d="M966.13 -88.6L966.13 -88.6" stroke="#132e65" stroke-width="1.5"></path><path d="M966.13 -88.6L1096.22 -57.64" stroke="#132e65" stroke-width="1.5"></path><path d="M966.13 -88.6L947.42 109.99" stroke="#132e65" stroke-width="1.5"></path><path d="M966.13 -88.6L1118.45 70.29" stroke="#132e65" stroke-width="1.5"></path><path d="M966.13 -88.6L985.14 228.68" stroke="#132e65" stroke-width="1.5"></path><path d="M966.13 -88.6L1265.71 55.42" stroke="#132e65" stroke-width="1.5"></path><path d="M947.42 109.99L947.42 109.99" stroke="#132e65" stroke-width="1.5"></path><path d="M947.42 109.99L985.14 228.68" stroke="#132e65" stroke-width="1.5"></path><path d="M947.42 109.99L1118.45 70.29" stroke="#132e65" stroke-width="1.5"></path><path d="M985.14 228.68L985.14 228.68" stroke="#132e65" stroke-width="1.5"></path><path d="M985.14 228.68L1126.87 203.21" stroke="#132e65" stroke-width="1.5"></path><path d="M985.14 228.68L1006.9 401.01" stroke="#132e65" stroke-width="1.5"></path><path d="M985.14 228.68L1142.89 354.5" stroke="#132e65" stroke-width="1.5"></path><path d="M1006.9 401.01L1006.9 401.01" stroke="#132e65" stroke-width="1.5"></path><path d="M1006.9 401.01L1142.89 354.5" stroke="#132e65" stroke-width="1.5"></path><path d="M1006.9 401.01L1113.45 525.37" stroke="#132e65" stroke-width="1.5"></path><path d="M1006.9 401.01L813.1 346.6" stroke="#132e65" stroke-width="1.5"></path><path d="M1006.9 401.01L1126.87 203.21" stroke="#132e65" stroke-width="1.5"></path><path d="M1096.22 -57.64L1096.22 -57.64" stroke="#132e65" stroke-width="1.5"></path><path d="M1096.22 -57.64L1118.45 70.29" stroke="#132e65" stroke-width="1.5"></path><path d="M1096.22 -57.64L1297.43 -59.76" stroke="#132e65" stroke-width="1.5"></path><path d="M1096.22 -57.64L1265.71 55.42" stroke="#132e65" stroke-width="1.5"></path><path d="M1118.45 70.29L1118.45 70.29" stroke="#132e65" stroke-width="1.5"></path><path d="M1118.45 70.29L1126.87 203.21" stroke="#132e65" stroke-width="1.5"></path><path d="M1118.45 70.29L1265.71 55.42" stroke="#132e65" stroke-width="1.5"></path><path d="M1126.87 203.21L1126.87 203.21" stroke="#132e65" stroke-width="1.5"></path><path d="M1126.87 203.21L1142.89 354.5" stroke="#132e65" stroke-width="1.5"></path><path d="M1126.87 203.21L1297.93 262.15" stroke="#132e65" stroke-width="1.5"></path><path d="M1126.87 203.21L1267.17 338.74" stroke="#132e65" stroke-width="1.5"></path><path d="M1126.87 203.21L947.42 109.99" stroke="#132e65" stroke-width="1.5"></path><path d="M1142.89 354.5L1142.89 354.5" stroke="#132e65" stroke-width="1.5"></path><path d="M1142.89 354.5L1267.17 338.74" stroke="#132e65" stroke-width="1.5"></path><path d="M1142.89 354.5L1113.45 525.37" stroke="#132e65" stroke-width="1.5"></path><path d="M1113.45 525.37L1113.45 525.37" stroke="#132e65" stroke-width="1.5"></path><path d="M1113.45 525.37L1241.91 546.03" stroke="#132e65" stroke-width="1.5"></path><path d="M1113.45 525.37L1104.56 661.21" stroke="#132e65" stroke-width="1.5"></path><path d="M1104.56 661.21L1104.56 661.21" stroke="#132e65" stroke-width="1.5"></path><path d="M1104.56 661.21L1265.45 671.67" stroke="#132e65" stroke-width="1.5"></path><path d="M1104.56 661.21L1241.91 546.03" stroke="#132e65" stroke-width="1.5"></path><path d="M1297.43 -59.76L1297.43 -59.76" stroke="#132e65" stroke-width="1.5"></path><path d="M1297.43 -59.76L1265.71 55.42" stroke="#132e65" stroke-width="1.5"></path><path d="M1297.43 -59.76L1456.58 -38.56" stroke="#132e65" stroke-width="1.5"></path><path d="M1297.43 -59.76L1403.71 70.98" stroke="#132e65" stroke-width="1.5"></path><path d="M1297.43 -59.76L1118.45 70.29" stroke="#132e65" stroke-width="1.5"></path><path d="M1297.43 -59.76L1566.18 -43.25" stroke="#132e65" stroke-width="1.5"></path><path d="M1265.71 55.42L1265.71 55.42" stroke="#132e65" stroke-width="1.5"></path><path d="M1265.71 55.42L1403.71 70.98" stroke="#132e65" stroke-width="1.5"></path><path d="M1265.71 55.42L1126.87 203.21" stroke="#132e65" stroke-width="1.5"></path><path d="M1265.71 55.42L1411.21 200.91" stroke="#132e65" stroke-width="1.5"></path><path d="M1297.93 262.15L1297.93 262.15" stroke="#132e65" stroke-width="1.5"></path><path d="M1297.93 262.15L1267.17 338.74" stroke="#132e65" stroke-width="1.5"></path><path d="M1297.93 262.15L1411.21 200.91" stroke="#132e65" stroke-width="1.5"></path><path d="M1267.17 338.74L1267.17 338.74" stroke="#132e65" stroke-width="1.5"></path><path d="M1241.91 546.03L1241.91 546.03" stroke="#132e65" stroke-width="1.5"></path><path d="M1241.91 546.03L1265.45 671.67" stroke="#132e65" stroke-width="1.5"></path><path d="M1265.45 671.67L1265.45 671.67" stroke="#132e65" stroke-width="1.5"></path><path d="M1265.45 671.67L1413.07 664.24" stroke="#132e65" stroke-width="1.5"></path><path d="M1265.45 671.67L1419.06 555.16" stroke="#132e65" stroke-width="1.5"></path><path d="M1265.45 671.67L1113.45 525.37" stroke="#132e65" stroke-width="1.5"></path><path d="M1265.45 671.67L1556.57 543.45" stroke="#132e65" stroke-width="1.5"></path><path d="M1456.58 -38.56L1456.58 -38.56" stroke="#132e65" stroke-width="1.5"></path><path d="M1456.58 -38.56L1566.18 -43.25" stroke="#132e65" stroke-width="1.5"></path><path d="M1456.58 -38.56L1403.71 70.98" stroke="#132e65" stroke-width="1.5"></path><path d="M1456.58 -38.56L1538.21 63.67" stroke="#132e65" stroke-width="1.5"></path><path d="M1403.71 70.98L1403.71 70.98" stroke="#132e65" stroke-width="1.5"></path><path d="M1403.71 70.98L1411.21 200.91" stroke="#132e65" stroke-width="1.5"></path><path d="M1411.21 200.91L1411.21 200.91" stroke="#132e65" stroke-width="1.5"></path><path d="M1411.21 200.91L1407.04 367.18" stroke="#132e65" stroke-width="1.5"></path><path d="M1411.21 200.91L1593.85 187.68" stroke="#132e65" stroke-width="1.5"></path><path d="M1411.21 200.91L1538.21 63.67" stroke="#132e65" stroke-width="1.5"></path><path d="M1411.21 200.91L1267.17 338.74" stroke="#132e65" stroke-width="1.5"></path><path d="M1407.04 367.18L1407.04 367.18" stroke="#132e65" stroke-width="1.5"></path><path d="M1407.04 367.18L1542.98 354" stroke="#132e65" stroke-width="1.5"></path><path d="M1407.04 367.18L1267.17 338.74" stroke="#132e65" stroke-width="1.5"></path><path d="M1407.04 367.18L1297.93 262.15" stroke="#132e65" stroke-width="1.5"></path><path d="M1407.04 367.18L1419.06 555.16" stroke="#132e65" stroke-width="1.5"></path><path d="M1407.04 367.18L1556.57 543.45" stroke="#132e65" stroke-width="1.5"></path><path d="M1419.06 555.16L1419.06 555.16" stroke="#132e65" stroke-width="1.5"></path><path d="M1419.06 555.16L1413.07 664.24" stroke="#132e65" stroke-width="1.5"></path><path d="M1419.06 555.16L1556.57 543.45" stroke="#132e65" stroke-width="1.5"></path><path d="M1419.06 555.16L1241.91 546.03" stroke="#132e65" stroke-width="1.5"></path><path d="M1413.07 664.24L1413.07 664.24" stroke="#132e65" stroke-width="1.5"></path><path d="M1413.07 664.24L1590.72 685.98" stroke="#132e65" stroke-width="1.5"></path><path d="M1413.07 664.24L1556.57 543.45" stroke="#132e65" stroke-width="1.5"></path><path d="M1413.07 664.24L1241.91 546.03" stroke="#132e65" stroke-width="1.5"></path><path d="M1566.18 -43.25L1566.18 -43.25" stroke="#132e65" stroke-width="1.5"></path><path d="M1566.18 -43.25L1538.21 63.67" stroke="#132e65" stroke-width="1.5"></path><path d="M1538.21 63.67L1538.21 63.67" stroke="#132e65" stroke-width="1.5"></path><path d="M1538.21 63.67L1403.71 70.98" stroke="#132e65" stroke-width="1.5"></path><path d="M1538.21 63.67L1593.85 187.68" stroke="#132e65" stroke-width="1.5"></path><path d="M1538.21 63.67L1297.43 -59.76" stroke="#132e65" stroke-width="1.5"></path><path d="M1593.85 187.68L1593.85 187.68" stroke="#132e65" stroke-width="1.5"></path><path d="M1593.85 187.68L1542.98 354" stroke="#132e65" stroke-width="1.5"></path><path d="M1542.98 354L1542.98 354" stroke="#132e65" stroke-width="1.5"></path><path d="M1542.98 354L1556.57 543.45" stroke="#132e65" stroke-width="1.5"></path><path d="M1556.57 543.45L1556.57 543.45" stroke="#132e65" stroke-width="1.5"></path><path d="M1556.57 543.45L1590.72 685.98" stroke="#132e65" stroke-width="1.5"></path><path d="M1590.72 685.98L1590.72 685.98" stroke="#132e65" stroke-width="1.5"></path><path d="M1590.72 685.98L1419.06 555.16" stroke="#132e65" stroke-width="1.5"></path><path d="M1590.72 685.98L1265.45 671.67" stroke="#132e65" stroke-width="1.5"></path><path d="M1590.72 685.98L1542.98 354" stroke="#132e65" stroke-width="1.5"></path><path d="M1590.72 685.98L1407.04 367.18" stroke="#132e65" stroke-width="1.5"></path><circle r="5" cx="-64.75" cy="387.58" fill="#132e65"></circle><circle r="5" cx="-80.32" cy="665.91" fill="#132e65"></circle><circle r="5" cx="111.12" cy="366.63" fill="#132e65"></circle><circle r="5" cx="62.89" cy="559.2" fill="#132e65"></circle><circle r="5" cx="64.09" cy="690.23" fill="#132e65"></circle><circle r="5" cx="216.67" cy="390.71" fill="#132e65"></circle><circle r="5" cx="260.23" cy="493.72" fill="#132e65"></circle><circle r="5" cx="257.39" cy="643.25" fill="#132e65"></circle><circle r="5" cx="399.09" cy="515.07" fill="#132e65"></circle><circle r="5" cx="338.08" cy="685.07" fill="#132e65"></circle><circle r="5" cx="512.23" cy="392.25" fill="#132e65"></circle><circle r="5" cx="544.48" cy="487.58" fill="#132e65"></circle><circle r="5" cx="506.08" cy="643.26" fill="#132e65"></circle><circle r="5" cx="677.55" cy="230.11" fill="#132e65"></circle><circle r="5" cx="701.46" cy="352.97" fill="#132e65"></circle><circle r="5" cx="660.87" cy="687.66" fill="#132e65"></circle><circle r="5" cx="806.38" cy="244.67" fill="#132e65"></circle><circle r="5" cx="813.1" cy="346.6" fill="#132e65"></circle><circle r="5" cx="859.38" cy="546.12" fill="#132e65"></circle><circle r="5" cx="856.11" cy="642.99" fill="#132e65"></circle><circle r="5" cx="966.13" cy="-88.6" fill="#132e65"></circle><circle r="5" cx="947.42" cy="109.99" fill="#132e65"></circle><circle r="5" cx="985.14" cy="228.68" fill="#132e65"></circle><circle r="5" cx="1006.9" cy="401.01" fill="#132e65"></circle><circle r="5" cx="1096.22" cy="-57.64" fill="#132e65"></circle><circle r="5" cx="1118.45" cy="70.29" fill="#132e65"></circle><circle r="5" cx="1126.87" cy="203.21" fill="#132e65"></circle><circle r="5" cx="1142.89" cy="354.5" fill="#132e65"></circle><circle r="5" cx="1113.45" cy="525.37" fill="#132e65"></circle><circle r="5" cx="1104.56" cy="661.21" fill="#132e65"></circle><circle r="5" cx="1297.43" cy="-59.76" fill="#132e65"></circle><circle r="5" cx="1265.71" cy="55.42" fill="#132e65"></circle><circle r="5" cx="1297.93" cy="262.15" fill="#132e65"></circle><circle r="5" cx="1267.17" cy="338.74" fill="#132e65"></circle><circle r="5" cx="1241.91" cy="546.03" fill="#132e65"></circle><circle r="5" cx="1265.45" cy="671.67" fill="#132e65"></circle><circle r="5" cx="1456.58" cy="-38.56" fill="#132e65"></circle><circle r="5" cx="1403.71" cy="70.98" fill="#132e65"></circle><circle r="5" cx="1411.21" cy="200.91" fill="#132e65"></circle><circle r="5" cx="1407.04" cy="367.18" fill="#132e65"></circle><circle r="5" cx="1419.06" cy="555.16" fill="#132e65"></circle><circle r="5" cx="1413.07" cy="664.24" fill="#132e65"></circle><circle r="5" cx="1566.18" cy="-43.25" fill="#132e65"></circle><circle r="5" cx="1538.21" cy="63.67" fill="#132e65"></circle><circle r="5" cx="1593.85" cy="187.68" fill="#132e65"></circle><circle r="5" cx="1542.98" cy="354" fill="#132e65"></circle><circle r="5" cx="1556.57" cy="543.45" fill="#132e65"></circle><circle r="5" cx="1590.72" cy="685.98" fill="#132e65"></circle><path d="M44.01 691.79L44.01 691.79" stroke="hsl(228.5, 77.2%, 51.5%)" stroke-width="1.5"></path><path d="M44.01 691.79L-89.06 651.83" stroke="hsl(228.5, 77.2%, 51.5%)" stroke-width="1.5"></path><path d="M44.01 691.79L194.37 708.77" stroke="hsl(228.5, 77.2%, 51.5%)" stroke-width="1.5"></path><path d="M973.27 550.05L973.27 550.05" stroke="hsl(228.5, 77.2%, 51.5%)" stroke-width="1.5"></path><path d="M973.27 550.05L857.1 545.71" stroke="hsl(228.5, 77.2%, 51.5%)" stroke-width="1.5"></path><path d="M973.27 550.05L1088.38 529.98" stroke="hsl(228.5, 77.2%, 51.5%)" stroke-width="1.5"></path><path d="M973.27 550.05L940.61 671.67" stroke="hsl(228.5, 77.2%, 51.5%)" stroke-width="1.5"></path><path d="M1394.26 507.15L1394.26 507.15" stroke="hsl(228.5, 77.2%, 51.5%)" stroke-width="1.5"></path><path d="M1394.26 507.15L1402.66 411.93" stroke="hsl(228.5, 77.2%, 51.5%)" stroke-width="1.5"></path><path d="M1394.26 507.15L1263.64 490.25" stroke="hsl(228.5, 77.2%, 51.5%)" stroke-width="1.5"></path><path d="M1394.26 507.15L1391.1 640.38" stroke="hsl(228.5, 77.2%, 51.5%)" stroke-width="1.5"></path><path d="M1587.47 219.55L1587.47 219.55" stroke="hsl(228.5, 77.2%, 51.5%)" stroke-width="1.5"></path><path d="M1587.47 219.55L1442.56 243.71" stroke="hsl(228.5, 77.2%, 51.5%)" stroke-width="1.5"></path><path d="M1587.47 219.55L1576.18 393.1" stroke="hsl(228.5, 77.2%, 51.5%)" stroke-width="1.5"></path><path d="M1587.47 219.55L1457.95 97.95" stroke="hsl(228.5, 77.2%, 51.5%)" stroke-width="1.5"></path><path d="M1571.87 652.11L1571.87 652.11" stroke="hsl(228.5, 77.2%, 51.5%)" stroke-width="1.5"></path><path d="M1571.87 652.11L1558.21 543.69" stroke="hsl(228.5, 77.2%, 51.5%)" stroke-width="1.5"></path><path d="M1571.87 652.11L1391.1 640.38" stroke="hsl(228.5, 77.2%, 51.5%)" stroke-width="1.5"></path><path d="M1571.87 652.11L1394.26 507.15" stroke="hsl(228.5, 77.2%, 51.5%)" stroke-width="1.5"></path><path d="M1571.87 652.11L1576.18 393.1" stroke="hsl(228.5, 77.2%, 51.5%)" stroke-width="1.5"></path><path d="M-94.6 541.68L-94.6 541.68" stroke="hsl(228.5, 77.2%, 51.5%)" stroke-width="1.5"></path><path d="M-94.6 541.68L-89.06 651.83" stroke="hsl(228.5, 77.2%, 51.5%)" stroke-width="1.5"></path><path d="M-94.6 541.68L64.34 497.12" stroke="hsl(228.5, 77.2%, 51.5%)" stroke-width="1.5"></path><path d="M-89.06 651.83L-89.06 651.83" stroke="hsl(228.5, 77.2%, 51.5%)" stroke-width="1.5"></path><path d="M-89.06 651.83L64.34 497.12" stroke="hsl(228.5, 77.2%, 51.5%)" stroke-width="1.5"></path><path d="M-89.06 651.83L194.37 708.77" stroke="hsl(228.5, 77.2%, 51.5%)" stroke-width="1.5"></path><path d="M-89.06 651.83L249.91 562.38" stroke="hsl(228.5, 77.2%, 51.5%)" stroke-width="1.5"></path><path d="M64.34 497.12L64.34 497.12" stroke="hsl(228.5, 77.2%, 51.5%)" stroke-width="1.5"></path><path d="M64.34 497.12L44.01 691.79" stroke="hsl(228.5, 77.2%, 51.5%)" stroke-width="1.5"></path><path d="M64.34 497.12L249.91 562.38" stroke="hsl(228.5, 77.2%, 51.5%)" stroke-width="1.5"></path><path d="M249.91 562.38L249.91 562.38" stroke="hsl(228.5, 77.2%, 51.5%)" stroke-width="1.5"></path><path d="M249.91 562.38L371.57 540.5" stroke="hsl(228.5, 77.2%, 51.5%)" stroke-width="1.5"></path><path d="M249.91 562.38L194.37 708.77" stroke="hsl(228.5, 77.2%, 51.5%)" stroke-width="1.5"></path><path d="M249.91 562.38L44.01 691.79" stroke="hsl(228.5, 77.2%, 51.5%)" stroke-width="1.5"></path><path d="M249.91 562.38L511.6 659.17" stroke="hsl(228.5, 77.2%, 51.5%)" stroke-width="1.5"></path><path d="M249.91 562.38L-94.6 541.68" stroke="hsl(228.5, 77.2%, 51.5%)" stroke-width="1.5"></path><path d="M194.37 708.77L194.37 708.77" stroke="hsl(228.5, 77.2%, 51.5%)" stroke-width="1.5"></path><path d="M194.37 708.77L371.57 540.5" stroke="hsl(228.5, 77.2%, 51.5%)" stroke-width="1.5"></path><path d="M194.37 708.77L64.34 497.12" stroke="hsl(228.5, 77.2%, 51.5%)" stroke-width="1.5"></path><path d="M194.37 708.77L511.6 659.17" stroke="hsl(228.5, 77.2%, 51.5%)" stroke-width="1.5"></path><path d="M371.57 540.5L371.57 540.5" stroke="hsl(228.5, 77.2%, 51.5%)" stroke-width="1.5"></path><path d="M371.57 540.5L511.6 659.17" stroke="hsl(228.5, 77.2%, 51.5%)" stroke-width="1.5"></path><path d="M511.6 659.17L511.6 659.17" stroke="hsl(228.5, 77.2%, 51.5%)" stroke-width="1.5"></path><path d="M511.6 659.17L656.39 548.43" stroke="hsl(228.5, 77.2%, 51.5%)" stroke-width="1.5"></path><path d="M511.6 659.17L693.76 700.79" stroke="hsl(228.5, 77.2%, 51.5%)" stroke-width="1.5"></path><path d="M683.89 379.74L683.89 379.74" stroke="hsl(228.5, 77.2%, 51.5%)" stroke-width="1.5"></path><path d="M683.89 379.74L656.39 548.43" stroke="hsl(228.5, 77.2%, 51.5%)" stroke-width="1.5"></path><path d="M683.89 379.74L857.1 545.71" stroke="hsl(228.5, 77.2%, 51.5%)" stroke-width="1.5"></path><path d="M683.89 379.74L969.99 346.48" stroke="hsl(228.5, 77.2%, 51.5%)" stroke-width="1.5"></path><path d="M656.39 548.43L656.39 548.43" stroke="hsl(228.5, 77.2%, 51.5%)" stroke-width="1.5"></path><path d="M656.39 548.43L693.76 700.79" stroke="hsl(228.5, 77.2%, 51.5%)" stroke-width="1.5"></path><path d="M656.39 548.43L857.1 545.71" stroke="hsl(228.5, 77.2%, 51.5%)" stroke-width="1.5"></path><path d="M656.39 548.43L839.78 706.04" stroke="hsl(228.5, 77.2%, 51.5%)" stroke-width="1.5"></path><path d="M656.39 548.43L371.57 540.5" stroke="hsl(228.5, 77.2%, 51.5%)" stroke-width="1.5"></path><path d="M693.76 700.79L693.76 700.79" stroke="hsl(228.5, 77.2%, 51.5%)" stroke-width="1.5"></path><path d="M693.76 700.79L839.78 706.04" stroke="hsl(228.5, 77.2%, 51.5%)" stroke-width="1.5"></path><path d="M857.1 545.71L857.1 545.71" stroke="hsl(228.5, 77.2%, 51.5%)" stroke-width="1.5"></path><path d="M857.1 545.71L940.61 671.67" stroke="hsl(228.5, 77.2%, 51.5%)" stroke-width="1.5"></path><path d="M857.1 545.71L839.78 706.04" stroke="hsl(228.5, 77.2%, 51.5%)" stroke-width="1.5"></path><path d="M857.1 545.71L693.76 700.79" stroke="hsl(228.5, 77.2%, 51.5%)" stroke-width="1.5"></path><path d="M839.78 706.04L839.78 706.04" stroke="hsl(228.5, 77.2%, 51.5%)" stroke-width="1.5"></path><path d="M839.78 706.04L940.61 671.67" stroke="hsl(228.5, 77.2%, 51.5%)" stroke-width="1.5"></path><path d="M839.78 706.04L973.27 550.05" stroke="hsl(228.5, 77.2%, 51.5%)" stroke-width="1.5"></path><path d="M839.78 706.04L1088.38 529.98" stroke="hsl(228.5, 77.2%, 51.5%)" stroke-width="1.5"></path><path d="M969.99 346.48L969.99 346.48" stroke="hsl(228.5, 77.2%, 51.5%)" stroke-width="1.5"></path><path d="M969.99 346.48L1147.62 346.9" stroke="hsl(228.5, 77.2%, 51.5%)" stroke-width="1.5"></path><path d="M969.99 346.48L973.27 550.05" stroke="hsl(228.5, 77.2%, 51.5%)" stroke-width="1.5"></path><path d="M969.99 346.48L1088.38 529.98" stroke="hsl(228.5, 77.2%, 51.5%)" stroke-width="1.5"></path><path d="M969.99 346.48L1151.95 218.49" stroke="hsl(228.5, 77.2%, 51.5%)" stroke-width="1.5"></path><path d="M940.61 671.67L940.61 671.67" stroke="hsl(228.5, 77.2%, 51.5%)" stroke-width="1.5"></path><path d="M940.61 671.67L1088.38 529.98" stroke="hsl(228.5, 77.2%, 51.5%)" stroke-width="1.5"></path><path d="M940.61 671.67L1146.67 645.49" stroke="hsl(228.5, 77.2%, 51.5%)" stroke-width="1.5"></path><path d="M940.61 671.67L693.76 700.79" stroke="hsl(228.5, 77.2%, 51.5%)" stroke-width="1.5"></path><path d="M1151.95 218.49L1151.95 218.49" stroke="hsl(228.5, 77.2%, 51.5%)" stroke-width="1.5"></path><path d="M1151.95 218.49L1147.62 346.9" stroke="hsl(228.5, 77.2%, 51.5%)" stroke-width="1.5"></path><path d="M1151.95 218.49L1274.1 259.24" stroke="hsl(228.5, 77.2%, 51.5%)" stroke-width="1.5"></path><path d="M1147.62 346.9L1147.62 346.9" stroke="hsl(228.5, 77.2%, 51.5%)" stroke-width="1.5"></path><path d="M1147.62 346.9L1274.1 259.24" stroke="hsl(228.5, 77.2%, 51.5%)" stroke-width="1.5"></path><path d="M1147.62 346.9L1306.47 405.43" stroke="hsl(228.5, 77.2%, 51.5%)" stroke-width="1.5"></path><path d="M1088.38 529.98L1088.38 529.98" stroke="hsl(228.5, 77.2%, 51.5%)" stroke-width="1.5"></path><path d="M1088.38 529.98L1146.67 645.49" stroke="hsl(228.5, 77.2%, 51.5%)" stroke-width="1.5"></path><path d="M1088.38 529.98L1263.64 490.25" stroke="hsl(228.5, 77.2%, 51.5%)" stroke-width="1.5"></path><path d="M1088.38 529.98L1147.62 346.9" stroke="hsl(228.5, 77.2%, 51.5%)" stroke-width="1.5"></path><path d="M1088.38 529.98L1237.69 677.21" stroke="hsl(228.5, 77.2%, 51.5%)" stroke-width="1.5"></path><path d="M1146.67 645.49L1146.67 645.49" stroke="hsl(228.5, 77.2%, 51.5%)" stroke-width="1.5"></path><path d="M1146.67 645.49L1237.69 677.21" stroke="hsl(228.5, 77.2%, 51.5%)" stroke-width="1.5"></path><path d="M1146.67 645.49L1263.64 490.25" stroke="hsl(228.5, 77.2%, 51.5%)" stroke-width="1.5"></path><path d="M1146.67 645.49L973.27 550.05" stroke="hsl(228.5, 77.2%, 51.5%)" stroke-width="1.5"></path><path d="M1146.67 645.49L1391.1 640.38" stroke="hsl(228.5, 77.2%, 51.5%)" stroke-width="1.5"></path><path d="M1257.13 -102.12L1257.13 -102.12" stroke="hsl(228.5, 77.2%, 51.5%)" stroke-width="1.5"></path><path d="M1257.13 -102.12L1389.11 -103.44" stroke="hsl(228.5, 77.2%, 51.5%)" stroke-width="1.5"></path><path d="M1257.13 -102.12L1457.95 97.95" stroke="hsl(228.5, 77.2%, 51.5%)" stroke-width="1.5"></path><path d="M1257.13 -102.12L1553.1 -55.11" stroke="hsl(228.5, 77.2%, 51.5%)" stroke-width="1.5"></path><path d="M1257.13 -102.12L1151.95 218.49" stroke="hsl(228.5, 77.2%, 51.5%)" stroke-width="1.5"></path><path d="M1274.1 259.24L1274.1 259.24" stroke="hsl(228.5, 77.2%, 51.5%)" stroke-width="1.5"></path><path d="M1274.1 259.24L1306.47 405.43" stroke="hsl(228.5, 77.2%, 51.5%)" stroke-width="1.5"></path><path d="M1274.1 259.24L1442.56 243.71" stroke="hsl(228.5, 77.2%, 51.5%)" stroke-width="1.5"></path><path d="M1274.1 259.24L1402.66 411.93" stroke="hsl(228.5, 77.2%, 51.5%)" stroke-width="1.5"></path><path d="M1274.1 259.24L1263.64 490.25" stroke="hsl(228.5, 77.2%, 51.5%)" stroke-width="1.5"></path><path d="M1306.47 405.43L1306.47 405.43" stroke="hsl(228.5, 77.2%, 51.5%)" stroke-width="1.5"></path><path d="M1306.47 405.43L1263.64 490.25" stroke="hsl(228.5, 77.2%, 51.5%)" stroke-width="1.5"></path><path d="M1306.47 405.43L1402.66 411.93" stroke="hsl(228.5, 77.2%, 51.5%)" stroke-width="1.5"></path><path d="M1306.47 405.43L1394.26 507.15" stroke="hsl(228.5, 77.2%, 51.5%)" stroke-width="1.5"></path><path d="M1263.64 490.25L1263.64 490.25" stroke="hsl(228.5, 77.2%, 51.5%)" stroke-width="1.5"></path><path d="M1237.69 677.21L1237.69 677.21" stroke="hsl(228.5, 77.2%, 51.5%)" stroke-width="1.5"></path><path d="M1237.69 677.21L1391.1 640.38" stroke="hsl(228.5, 77.2%, 51.5%)" stroke-width="1.5"></path><path d="M1237.69 677.21L1263.64 490.25" stroke="hsl(228.5, 77.2%, 51.5%)" stroke-width="1.5"></path><path d="M1389.11 -103.44L1389.11 -103.44" stroke="hsl(228.5, 77.2%, 51.5%)" stroke-width="1.5"></path><path d="M1389.11 -103.44L1553.1 -55.11" stroke="hsl(228.5, 77.2%, 51.5%)" stroke-width="1.5"></path><path d="M1389.11 -103.44L1457.95 97.95" stroke="hsl(228.5, 77.2%, 51.5%)" stroke-width="1.5"></path><path d="M1389.11 -103.44L1442.56 243.71" stroke="hsl(228.5, 77.2%, 51.5%)" stroke-width="1.5"></path><path d="M1389.11 -103.44L1587.47 219.55" stroke="hsl(228.5, 77.2%, 51.5%)" stroke-width="1.5"></path><path d="M1457.95 97.95L1457.95 97.95" stroke="hsl(228.5, 77.2%, 51.5%)" stroke-width="1.5"></path><path d="M1457.95 97.95L1442.56 243.71" stroke="hsl(228.5, 77.2%, 51.5%)" stroke-width="1.5"></path><path d="M1457.95 97.95L1553.1 -55.11" stroke="hsl(228.5, 77.2%, 51.5%)" stroke-width="1.5"></path><path d="M1457.95 97.95L1274.1 259.24" stroke="hsl(228.5, 77.2%, 51.5%)" stroke-width="1.5"></path><path d="M1442.56 243.71L1442.56 243.71" stroke="hsl(228.5, 77.2%, 51.5%)" stroke-width="1.5"></path><path d="M1442.56 243.71L1402.66 411.93" stroke="hsl(228.5, 77.2%, 51.5%)" stroke-width="1.5"></path><path d="M1442.56 243.71L1576.18 393.1" stroke="hsl(228.5, 77.2%, 51.5%)" stroke-width="1.5"></path><path d="M1442.56 243.71L1306.47 405.43" stroke="hsl(228.5, 77.2%, 51.5%)" stroke-width="1.5"></path><path d="M1402.66 411.93L1402.66 411.93" stroke="hsl(228.5, 77.2%, 51.5%)" stroke-width="1.5"></path><path d="M1402.66 411.93L1263.64 490.25" stroke="hsl(228.5, 77.2%, 51.5%)" stroke-width="1.5"></path><path d="M1402.66 411.93L1576.18 393.1" stroke="hsl(228.5, 77.2%, 51.5%)" stroke-width="1.5"></path><path d="M1391.1 640.38L1391.1 640.38" stroke="hsl(228.5, 77.2%, 51.5%)" stroke-width="1.5"></path><path d="M1553.1 -55.11L1553.1 -55.11" stroke="hsl(228.5, 77.2%, 51.5%)" stroke-width="1.5"></path><path d="M1553.1 -55.11L1587.47 219.55" stroke="hsl(228.5, 77.2%, 51.5%)" stroke-width="1.5"></path><path d="M1576.18 393.1L1576.18 393.1" stroke="hsl(228.5, 77.2%, 51.5%)" stroke-width="1.5"></path><path d="M1576.18 393.1L1558.21 543.69" stroke="hsl(228.5, 77.2%, 51.5%)" stroke-width="1.5"></path><path d="M1558.21 543.69L1558.21 543.69" stroke="hsl(228.5, 77.2%, 51.5%)" stroke-width="1.5"></path><path d="M1558.21 543.69L1394.26 507.15" stroke="hsl(228.5, 77.2%, 51.5%)" stroke-width="1.5"></path><path d="M1558.21 543.69L1391.1 640.38" stroke="hsl(228.5, 77.2%, 51.5%)" stroke-width="1.5"></path><path d="M1558.21 543.69L1402.66 411.93" stroke="hsl(228.5, 77.2%, 51.5%)" stroke-width="1.5"></path><path d="M1558.21 543.69L1306.47 405.43" stroke="hsl(228.5, 77.2%, 51.5%)" stroke-width="1.5"></path><circle r="25" cx="44.01" cy="691.79" fill="url(#SvgjsRadialGradient1011)"></circle><circle r="25" cx="973.27" cy="550.05" fill="url(#SvgjsRadialGradient1011)"></circle><circle r="25" cx="1394.26" cy="507.15" fill="url(#SvgjsRadialGradient1011)"></circle><circle r="25" cx="1587.47" cy="219.55" fill="url(#SvgjsRadialGradient1011)"></circle><circle r="25" cx="1571.87" cy="652.11" fill="url(#SvgjsRadialGradient1011)"></circle><circle r="5" cx="-94.6" cy="541.68" fill="#8b9ad9"></circle><circle r="5" cx="-89.06" cy="651.83" fill="#8b9ad9"></circle><circle r="5" cx="64.34" cy="497.12" fill="#8b9ad9"></circle><circle r="5" cx="249.91" cy="562.38" fill="#8b9ad9"></circle><circle r="5" cx="194.37" cy="708.77" fill="#8b9ad9"></circle><circle r="5" cx="371.57" cy="540.5" fill="#8b9ad9"></circle><circle r="5" cx="511.6" cy="659.17" fill="#8b9ad9"></circle><circle r="5" cx="683.89" cy="379.74" fill="#8b9ad9"></circle><circle r="5" cx="656.39" cy="548.43" fill="#8b9ad9"></circle><circle r="5" cx="693.76" cy="700.79" fill="#8b9ad9"></circle><circle r="5" cx="857.1" cy="545.71" fill="#8b9ad9"></circle><circle r="5" cx="839.78" cy="706.04" fill="#8b9ad9"></circle><circle r="5" cx="969.99" cy="346.48" fill="#8b9ad9"></circle><circle r="5" cx="940.61" cy="671.67" fill="#8b9ad9"></circle><circle r="5" cx="1151.95" cy="218.49" fill="#8b9ad9"></circle><circle r="5" cx="1147.62" cy="346.9" fill="#8b9ad9"></circle><circle r="5" cx="1088.38" cy="529.98" fill="#8b9ad9"></circle><circle r="5" cx="1146.67" cy="645.49" fill="#8b9ad9"></circle><circle r="5" cx="1257.13" cy="-102.12" fill="#8b9ad9"></circle><circle r="5" cx="1274.1" cy="259.24" fill="#8b9ad9"></circle><circle r="5" cx="1306.47" cy="405.43" fill="#8b9ad9"></circle><circle r="5" cx="1263.64" cy="490.25" fill="#8b9ad9"></circle><circle r="5" cx="1237.69" cy="677.21" fill="#8b9ad9"></circle><circle r="5" cx="1389.11" cy="-103.44" fill="#8b9ad9"></circle><circle r="5" cx="1457.95" cy="97.95" fill="#8b9ad9"></circle><circle r="5" cx="1442.56" cy="243.71" fill="#8b9ad9"></circle><circle r="5" cx="1402.66" cy="411.93" fill="#8b9ad9"></circle><circle r="5" cx="1391.1" cy="640.38" fill="#8b9ad9"></circle><circle r="5" cx="1553.1" cy="-55.11" fill="#8b9ad9"></circle><circle r="5" cx="1576.18" cy="393.1" fill="#8b9ad9"></circle><circle r="5" cx="1558.21" cy="543.69" fill="#8b9ad9"></circle></g><defs><mask id="SvgjsMask1010"><rect width="1440" height="560" fill="#ffffff"></rect></mask><radialGradient id="SvgjsRadialGradient1011"><stop stop-color="#ffffff" offset="0.1"></stop><stop stop-color="#1735b3" offset="0.2"></stop><stop stop-color="rgba(23, 53, 179, 0)" offset="1"></stop></radialGradient></defs></svg>