<svg xmlns="http://www.w3.org/2000/svg" version="1.1" xmlns:xlink="http://www.w3.org/1999/xlink" xmlns:svgjs="http://svgjs.com/svgjs" width="1440" height="560" preserveAspectRatio="none" viewBox="0 0 1440 560"><g mask="url(&quot;#SvgjsMask1042&quot;)" fill="none"><path d="M -1120.5681069869897,427 C -976.57,385.4 -688.57,198 -400.56810698698973,219 C -112.57,240 31.43,565.2 319.43189301301027,532 C 607.43,498.8 815.32,66.2 1039.4318930130103,53 C 1263.55,39.8 1359.89,383.4 1440,466" stroke="rgba(51, 121, 194, 0.58)" stroke-width="2"></path><path d="M -707.9680795508959,401 C -563.97,349.4 -275.97,120.8 12.031920449104057,143 C 300.03,165.2 444.03,522 732.0319204491041,512 C 1020.03,502 1310.44,104.8 1452.031920449104,93 C 1593.63,81.2 1442.41,381 1440,453" stroke="rgba(51, 121, 194, 0.58)" stroke-width="2"></path><path d="M -1423.2525729827735,423 C -1279.25,348.6 -991.25,55.8 -703.2525729827735,51 C -415.25,46.2 -271.25,382.6 16.747427017226528,399 C 304.75,415.4 452.1,152.8 736.7474270172265,133 C 1021.4,113.2 1299.35,266.6 1440,300" stroke="rgba(51, 121, 194, 0.58)" stroke-width="2"></path></g><defs><mask id="SvgjsMask1042"><rect width="1440" height="560" fill="#ffffff"></rect></mask></defs></svg>